<?xml version="1.0" encoding="UTF-8" standalone="no"?>
<!-- Created with Inkscape (http://www.inkscape.org/) -->

<svg
   xmlns:dc="http://purl.org/dc/elements/1.1/"
   xmlns:cc="http://creativecommons.org/ns#"
   xmlns:rdf="http://www.w3.org/1999/02/22-rdf-syntax-ns#"
   xmlns:svg="http://www.w3.org/2000/svg"
   xmlns="http://www.w3.org/2000/svg"
   xmlns:sodipodi="http://sodipodi.sourceforge.net/DTD/sodipodi-0.dtd"
   xmlns:inkscape="http://www.inkscape.org/namespaces/inkscape"
   version="1.1"
   id="svg10"
   width="50"
   height="50"
   viewBox="0 0 50 50"
   sodipodi:docname="360fotobutton.svg"
   inkscape:version="0.92.1 r15371">
  <metadata
     id="metadata16">
    <rdf:RDF>
      <cc:Work
         rdf:about="">
        <dc:format>image/svg+xml</dc:format>
        <dc:type
           rdf:resource="http://purl.org/dc/dcmitype/StillImage" />
        <dc:title />
      </cc:Work>
    </rdf:RDF>
  </metadata>
  <defs
     id="defs14" />
  <sodipodi:namedview
     pagecolor="#ffffff"
     bordercolor="#666666"
     borderopacity="1"
     objecttolerance="10"
     gridtolerance="10"
     guidetolerance="10"
     inkscape:pageopacity="0"
     inkscape:pageshadow="2"
     inkscape:window-width="1680"
     inkscape:window-height="987"
     id="namedview12"
     showgrid="false"
     inkscape:zoom="11.313709"
     inkscape:cx="13.918781"
     inkscape:cy="22.567884"
     inkscape:window-x="-4"
     inkscape:window-y="-4"
     inkscape:window-maximized="1"
     inkscape:current-layer="svg10" />
  <path
     style="fill:#ffffff;stroke-width:0.03923139"
     d="M 24.038831,34.716088 V 33.05013 L 23.774019,33.0264 C 23.628373,33.01335 23.11199,32.984648 22.626501,32.96262 19.893234,32.8386 17.212402,32.61303 15.152922,32.333779 9.9490702,31.628173 5.3455735,30.178877 2.9771108,28.500529 2.0975501,27.877252 1.4192125,27.050637 1.1666884,26.294369 1.0451309,25.930324 1.0169289,25.269983 1.1053593,24.858369 1.2497615,24.186226 1.7963035,23.338831 2.4367876,22.794034 3.6891407,21.72878 5.1869555,20.944011 7.3511,20.219216 c 1.5617308,-0.52304 2.6326797,-0.79034 3.16653,-0.79034 0.32366,0 0.340528,0.0044 0.407206,0.106097 0.103114,0.157277 0.116844,0.691392 0.02246,0.873906 -0.103981,0.201082 -0.262525,0.287215 -0.945417,0.513618 -2.2555208,0.747785 -3.5046402,1.316177 -4.4771698,2.037264 -0.5832153,0.432427 -0.9609877,0.884186 -1.1433866,1.367318 -0.2956325,0.783061 0.2926446,1.725249 1.5733771,2.519929 2.4378096,1.512635 6.9772643,2.584573 13.1017403,3.09382 1.331814,0.11074 3.708458,0.274732 4.403723,0.303863 l 0.578663,0.02425 v -1.810743 -1.810743 h 0.09667 c 0.07292,0 0.738034,0.583337 2.706966,2.374127 2.273114,2.067451 2.610296,2.388384 2.610296,2.484499 0,0.09613 -0.336534,0.416266 -2.607819,2.480757 -1.763979,1.603374 -2.639901,2.374402 -2.706965,2.382799 l -0.09915,0.01241 z m 8.237993,-2.232968 c -0.298168,-0.151133 -0.330774,-0.250693 -0.345805,-1.055891 -0.01898,-1.01687 0.07361,-1.306773 0.488803,-1.530428 0.238485,-0.128466 0.4587,-0.172417 1.250314,-0.249538 3.43706,-0.334846 6.465317,-1.072561 9.191313,-2.239098 1.114835,-0.477073 1.485187,-0.687734 1.924771,-1.094835 1.00089,-0.926938 1.034771,-2.146695 0.08483,-3.054263 -0.579373,-0.553528 -1.932554,-1.238838 -3.923492,-1.987025 -0.928728,-0.349012 -1.058839,-0.467491 -1.059102,-0.964413 0,-0.31205 0.05073,-0.502784 0.169052,-0.633557 0.15292,-0.16901 0.608341,-0.09625 1.655062,0.264437 0.258927,0.08922 0.708707,0.241734 0.999514,0.338915 1.17884,0.393944 2.608534,1.035798 3.520993,1.580736 1.380282,0.82433 2.317241,1.873198 2.543535,2.847338 0.09894,0.425899 0.06145,1.239462 -0.07478,1.623038 -0.186879,0.526172 -0.564026,1.092454 -1.02128,1.533449 -0.09974,0.09619 -0.182025,0.193293 -0.182853,0.215772 -0.0024,0.064 -1.489761,0.999682 -2.077761,1.307057 -2.435802,1.273304 -4.989071,2.013204 -9.631305,2.791013 -2.01574,0.337738 -2.442099,0.395564 -2.916577,0.395564 -0.358923,0 -0.446788,-0.01303 -0.59523,-0.08827 z M 15.211769,24.329749 c -0.853918,-0.108271 -2.0008,-0.511174 -2.0008,-0.702889 0,-0.05948 0.338406,-1.34997 0.455288,-1.736214 0.03093,-0.102218 0.16675,-0.0849 0.520068,0.06633 1.152422,0.493257 2.139008,0.57159 2.81919,0.223839 0.739452,-0.378055 0.878119,-1.211492 0.289974,-1.742847 -0.391442,-0.353644 -0.774686,-0.461107 -1.740445,-0.488024 l -0.735588,-0.0205 V 19.031842 18.13424 l 0.539431,-0.0014 c 0.697839,-0.0018 1.085376,-0.07113 1.461369,-0.261548 0.469759,-0.237905 0.670756,-0.608781 0.529866,-0.977698 -0.295876,-0.774741 -1.520416,-0.888768 -2.846417,-0.265054 -0.20968,0.09863 -0.41365,0.17308 -0.453266,0.165451 -0.05761,-0.01109 -0.11754,-0.174867 -0.299287,-0.817812 -0.124992,-0.442167 -0.222636,-0.855052 -0.216987,-0.917522 0.0085,-0.09416 0.04718,-0.132568 0.226043,-0.224588 0.350259,-0.180195 0.836012,-0.342069 1.366523,-0.455386 0.458596,-0.09796 0.568153,-0.106251 1.418906,-0.10742 0.833005,-0.0011 0.955996,0.0074 1.27502,0.08823 0.429274,0.108809 0.981864,0.373965 1.280457,0.614417 0.261975,0.210965 0.548838,0.615775 0.66876,0.943727 0.06649,0.181836 0.08971,0.347836 0.102039,0.72966 0.01773,0.549024 -0.03262,0.832861 -0.215063,1.212293 -0.135547,0.2819 -0.622647,0.769999 -0.943214,0.945148 -0.134602,0.07354 -0.24494,0.142632 -0.245196,0.153531 -2.75e-4,0.0109 0.104192,0.0604 0.232106,0.109997 0.681497,0.264256 1.226129,0.846904 1.42833,1.528029 0.198368,0.66821 0.08242,1.58807 -0.274381,2.176867 -0.499884,0.824902 -1.409408,1.35094 -2.661541,1.539346 -0.423229,0.06368 -1.538273,0.07337 -1.981185,0.01721 z m 9.141544,-0.01556 c -0.770836,-0.145606 -1.367756,-0.453109 -1.8768,-0.966829 -0.770481,-0.777559 -1.145833,-1.859046 -1.143882,-3.295814 0.0016,-1.161785 0.224745,-2.139963 0.686068,-3.007162 0.747123,-1.404445 2.035341,-2.323272 3.694233,-2.63493 0.474926,-0.08923 1.258537,-0.159118 1.783958,-0.159118 h 0.347385 v 0.976784 0.976785 l -0.41099,0.0032 c -0.840941,0.0065 -1.676798,0.199294 -2.256744,0.520664 -0.405717,0.224823 -0.87591,0.701844 -1.077029,1.092671 -0.102988,0.200133 -0.127494,0.273687 -0.07662,0.229986 0.150461,-0.129257 0.57504,-0.312268 0.909096,-0.391857 0.296482,-0.07064 0.429828,-0.07925 0.989953,-0.06397 0.556015,0.01517 0.689741,0.03161 0.948091,0.116547 1.352822,0.444763 2.108672,1.681712 2.020562,3.306652 -0.08668,1.598587 -1.057052,2.826699 -2.558843,3.238497 -0.405265,0.111126 -1.523506,0.143876 -1.978435,0.05794 z m 1.126147,-1.845265 c 0.593415,-0.176226 1.030996,-1.027992 0.911712,-1.77468 -0.06929,-0.433747 -0.183015,-0.672156 -0.446186,-0.935379 -0.377541,-0.377618 -0.804176,-0.472194 -1.298068,-0.287755 -0.346294,0.12932 -0.733392,0.52347 -0.825594,0.840637 -0.08464,0.291149 -0.05624,0.655925 0.0836,1.07402 0.200783,0.600258 0.505025,0.925721 1.016608,1.087514 0.210875,0.06669 0.32159,0.06583 0.557923,-0.0044 z m 6.994119,1.846593 c -0.603381,-0.12758 -1.058163,-0.358244 -1.488834,-0.755137 -0.970691,-0.894554 -1.476467,-2.555217 -1.401684,-4.602278 0.0507,-1.387962 0.360731,-2.486055 0.938609,-3.324487 0.485888,-0.704965 1.191964,-1.168238 2.024015,-1.328002 0.391242,-0.07512 1.264616,-0.07158 1.643452,0.0067 1.455005,0.30054 2.375251,1.453189 2.722481,3.410028 0.07885,0.444356 0.09063,0.641311 0.09153,1.530024 7.88e-4,0.78285 -0.01488,1.120355 -0.06737,1.451561 -0.315311,1.989482 -1.181173,3.161216 -2.637937,3.569808 -0.323541,0.09075 -1.468687,0.116992 -1.824259,0.04181 z m 1.125851,-1.9083 c 0.133655,-0.05035 0.398239,-0.306122 0.504836,-0.488016 0.567325,-0.968066 0.636755,-3.727251 0.124835,-4.960929 -0.158257,-0.381382 -0.467286,-0.706034 -0.745664,-0.783361 -0.165041,-0.04584 -0.208007,-0.04372 -0.370397,0.01829 -0.506214,0.193325 -0.840046,0.814885 -1.000364,1.862576 -0.06834,0.446607 -0.06806,2.108815 4.28e-4,2.542057 0.172668,1.092282 0.51299,1.684225 1.066388,1.854838 0.100102,0.03086 0.264635,0.01305 0.41994,-0.04546 z m 4.98499,-5.76707 c -0.649785,-0.0952 -1.149723,-0.611434 -1.245393,-1.285997 -0.105099,-0.741047 0.188331,-1.368354 0.793597,-1.696583 0.24436,-0.132514 0.247261,-0.133012 0.774902,-0.133012 0.527641,0 0.530542,4.98e-4 0.774902,0.133012 0.445692,0.241694 0.723192,0.640246 0.794153,1.140586 0.04763,0.335826 -0.0027,0.748859 -0.122252,1.003182 -0.205079,0.436289 -0.663464,0.769396 -1.156905,0.840723 -0.302654,0.04375 -0.301308,0.04375 -0.613004,-0.0019 z m 0.57811,-0.854723 c 0.323662,-0.147833 0.565945,-0.524934 0.514263,-0.800423 -0.05624,-0.299782 -0.380291,-0.623833 -0.680073,-0.680073 -0.403907,-0.07577 -0.934204,0.454719 -0.858411,0.858727 0.04463,0.237908 0.230614,0.477743 0.458552,0.591329 0.244675,0.121927 0.352648,0.127737 0.565669,0.03044 z"
     id="path4492"
     inkscape:connector-curvature="0" />
</svg>
