<?xml version="1.0" encoding="UTF-8" standalone="no"?>
<!-- Created with Inkscape (http://www.inkscape.org/) -->

<svg
   xmlns:dc="http://purl.org/dc/elements/1.1/"
   xmlns:cc="http://creativecommons.org/ns#"
   xmlns:rdf="http://www.w3.org/1999/02/22-rdf-syntax-ns#"
   xmlns:svg="http://www.w3.org/2000/svg"
   xmlns="http://www.w3.org/2000/svg"
   xmlns:sodipodi="http://sodipodi.sourceforge.net/DTD/sodipodi-0.dtd"
   xmlns:inkscape="http://www.inkscape.org/namespaces/inkscape"
   width="30pt"
   height="30pt"
   viewBox="0 0 10.583333 10.583333"
   version="1.1"
   id="svg8"
   sodipodi:docname="infobutton.svg"
   inkscape:version="0.92.1 r15371">
  <defs
     id="defs2" />
  <sodipodi:namedview
     id="base"
     pagecolor="#ffffff"
     bordercolor="#666666"
     borderopacity="1.0"
     inkscape:pageopacity="0.0"
     inkscape:pageshadow="2"
     inkscape:zoom="15.839192"
     inkscape:cx="17.665535"
     inkscape:cy="16.613356"
     inkscape:document-units="pt"
     inkscape:current-layer="layer4"
     showgrid="false"
     units="pt"
     showguides="false"
     inkscape:lockguides="false"
     inkscape:window-width="1680"
     inkscape:window-height="987"
     inkscape:window-x="-4"
     inkscape:window-y="-4"
     inkscape:window-maximized="1" />
  <metadata
     id="metadata5">
    <rdf:RDF>
      <cc:Work
         rdf:about="">
        <dc:format>image/svg+xml</dc:format>
        <dc:type
           rdf:resource="http://purl.org/dc/dcmitype/StillImage" />
        <dc:title></dc:title>
      </cc:Work>
    </rdf:RDF>
  </metadata>
  <g
     inkscape:groupmode="layer"
     id="layer2"
     inkscape:label="Background"
     transform="translate(0,-1.4111111)"
     sodipodi:insensitive="true"
     style="display:none">
    <rect
       style="fill:#b3b3b3;stroke-width:0.23300456"
       id="rect11"
       width="10.390102"
       height="10.440216"
       x="0.10022607"
       y="1.4874108" />
  </g>
  <g
     inkscape:label="Laag 1"
     inkscape:groupmode="layer"
     id="layer1"
     transform="translate(0,-286.41667)"
     style="display:inline" />
  <g
     inkscape:groupmode="layer"
     id="layer4"
     inkscape:label="Laag 2"
     style="display:inline">
    <g
       id="g113"
       style="fill:#ffffff">
      <path
         transform="scale(0.26458333)"
         id="rect15-9"
         d="M 4 19 L 4 21 L 19 21 L 19 19 L 4 19 z M 21 19 L 21 21 L 36 21 L 36 19 L 21 19 z "
         style="display:inline;fill:#ffffff;stroke-width:0.76290554" />
      <path
         inkscape:connector-curvature="0"
         id="path32"
         d="m 5.292011,287.29862 a 4.4097223,4.4098945 0 0 0 -4.41006658,4.40972 4.4097223,4.4098945 0 0 0 4.41006658,4.40972 4.4097223,4.4098945 0 0 0 4.4095494,-4.40972 4.4097223,4.4098945 0 0 0 -4.4095494,-4.40972 z m 0,0.70541 a 3.7041666,3.7043113 0 0 1 3.7041666,3.70431 3.7041666,3.7043113 0 0 1 -3.7041666,3.70431 3.7041666,3.7043113 0 0 1 -3.7041665,-3.70431 3.7041666,3.7043113 0 0 1 3.7041665,-3.70431 z"
         style="display:inline;fill:#ffffff;stroke-width:0.31749734"
         transform="translate(0,-286.41666)" />
      <path
         inkscape:connector-curvature="0"
         id="rect15-5"
         transform="scale(0.26458333)"
         d="m 19,4 v 15 h 2 V 4 Z m 0,17 v 15 h 2 V 21 Z"
         style="fill:#ffffff;stroke-width:0.76290554" />
    </g>
  </g>
  <g
     inkscape:groupmode="layer"
     id="layer3"
     inkscape:label="knip" />
</svg>
