<?xml version="1.0" encoding="UTF-8" standalone="no"?>
<!-- Created with Inkscape (http://www.inkscape.org/) -->

<svg
   xmlns:dc="http://purl.org/dc/elements/1.1/"
   xmlns:cc="http://creativecommons.org/ns#"
   xmlns:rdf="http://www.w3.org/1999/02/22-rdf-syntax-ns#"
   xmlns:svg="http://www.w3.org/2000/svg"
   xmlns="http://www.w3.org/2000/svg"
   xmlns:sodipodi="http://sodipodi.sourceforge.net/DTD/sodipodi-0.dtd"
   xmlns:inkscape="http://www.inkscape.org/namespaces/inkscape"
   width="80"
   height="80"
   viewBox="0 0 21.166666 21.166667"
   version="1.1"
   id="svg8"
   inkscape:version="0.92.1 r15371"
   sodipodi:docname="location.svg">
  <defs
     id="defs2" />
  <sodipodi:namedview
     id="base"
     pagecolor="#ffffff"
     bordercolor="#666666"
     borderopacity="1.0"
     inkscape:pageopacity="0.0"
     inkscape:pageshadow="2"
     inkscape:zoom="5.6568542"
     inkscape:cx="25.255609"
     inkscape:cy="38.336351"
     inkscape:document-units="px"
     inkscape:current-layer="svg8"
     showgrid="false"
     units="px"
     inkscape:window-width="1680"
     inkscape:window-height="987"
     inkscape:window-x="-4"
     inkscape:window-y="-4"
     inkscape:window-maximized="1"
     inkscape:measure-start="0,0"
     inkscape:measure-end="0,0" />
  <metadata
     id="metadata5">
    <rdf:RDF>
      <cc:Work
         rdf:about="">
        <dc:format>image/svg+xml</dc:format>
        <dc:type
           rdf:resource="http://purl.org/dc/dcmitype/StillImage" />
        <dc:title />
      </cc:Work>
    </rdf:RDF>
  </metadata>
  <path
     style="fill:#ffffff;fill-opacity:1;stroke:#000000;stroke-width:0;stroke-miterlimit:4;stroke-dasharray:none;stroke-dashoffset:0;stroke-opacity:1"
     d="M 9.4494051,2.6458338 V 3.8825246 A 6.8035708,6.8035704 0 0 0 3.8758805,9.4494047 H 2.6458338 v 2.2678573 h 1.2366909 a 6.8035708,6.8035704 0 0 0 5.5668804,5.573524 v 1.230047 h 2.2678569 v -1.236691 a 6.8035708,6.8035704 0 0 0 5.573525,-5.56688 h 1.230046 V 9.4494047 H 17.284142 A 6.8035708,6.8035704 0 0 0 11.717262,3.8758804 V 2.6458338 Z m 1.1339289,3.4017855 a 4.5357137,4.5357135 0 0 1 4.535714,4.5357137 4.5357137,4.5357135 0 0 1 -4.535714,4.535715 4.5357137,4.5357135 0 0 1 -4.5357145,-4.535715 4.5357137,4.5357135 0 0 1 4.5357145,-4.5357137 z m 0,2.8348214 a 1.7008925,1.7008923 0 0 0 -1.7008932,1.7008923 1.7008925,1.7008923 0 0 0 1.7008932,1.700893 1.7008925,1.7008923 0 0 0 1.700892,-1.700893 1.7008925,1.7008923 0 0 0 -1.700892,-1.7008923 z"
     id="path4499-6-1"
     inkscape:connector-curvature="0" />
</svg>
