<?xml version="1.0" encoding="UTF-8" standalone="no"?>
<!-- Created with Inkscape (http://www.inkscape.org/) -->

<svg
   xmlns:dc="http://purl.org/dc/elements/1.1/"
   xmlns:cc="http://creativecommons.org/ns#"
   xmlns:rdf="http://www.w3.org/1999/02/22-rdf-syntax-ns#"
   xmlns:svg="http://www.w3.org/2000/svg"
   xmlns="http://www.w3.org/2000/svg"
   xmlns:sodipodi="http://sodipodi.sourceforge.net/DTD/sodipodi-0.dtd"
   xmlns:inkscape="http://www.inkscape.org/namespaces/inkscape"
   width="50mm"
   height="50mm"
   viewBox="0 0 50 50"
   version="1.1"
   id="svg8"
   inkscape:version="0.92.1 r15371"
   sodipodi:docname="point.svg">
  <defs
     id="defs2" />
  <sodipodi:namedview
     id="base"
     pagecolor="#ffffff"
     bordercolor="#666666"
     borderopacity="1.0"
     inkscape:pageopacity="0.0"
     inkscape:pageshadow="2"
     inkscape:zoom="0.98994949"
     inkscape:cx="79.330215"
     inkscape:cy="124.685"
     inkscape:document-units="mm"
     inkscape:current-layer="layer1"
     showgrid="false"
     inkscape:window-width="1680"
     inkscape:window-height="987"
     inkscape:window-x="-4"
     inkscape:window-y="-4"
     inkscape:window-maximized="1" />
  <metadata
     id="metadata5">
    <rdf:RDF>
      <cc:Work
         rdf:about="">
        <dc:format>image/svg+xml</dc:format>
        <dc:type
           rdf:resource="http://purl.org/dc/dcmitype/StillImage" />
        <dc:title />
      </cc:Work>
    </rdf:RDF>
  </metadata>
  <g
     inkscape:label="Layer 1"
     inkscape:groupmode="layer"
     id="layer1"
     transform="translate(0,-247)">
    <g
       id="g4577"
       transform="matrix(0.86600999,0,0,0.86600999,-114.55622,87.792501)"
       style="fill:#ffffff">
      <g
         style="display:inline;fill:#ffffff"
         transform="matrix(3.6717392,0,0,3.6551344,-535.26517,-660.11788)"
         id="g4496">
        <path
           inkscape:connector-curvature="0"
           id="path4510"
           d="m 185.06486,243.46405 c 2.5e-4,-0.0239 0.26271,-0.77461 0.58325,-1.66815 l 0.58278,-1.6246 3.81013,-3.81014 3.81014,-3.81013 0.47071,0.11987 0.47072,0.11987 0.46254,0.45514 0.46254,0.45514 0.12036,0.4794 0.12036,0.47941 -3.8226,3.82153 -3.8226,3.82152 -1.5609,0.58013 c -0.8585,0.31907 -1.58947,0.59012 -1.6244,0.60234 -0.0349,0.0122 -0.0633,0.003 -0.063,-0.0213 z m 1.63485,-0.88232 c 0.55018,-0.20589 0.99049,-0.39027 0.97847,-0.40973 -0.012,-0.0195 -0.0964,-0.0499 -0.18753,-0.0676 -0.21776,-0.0423 -1.0401,-0.90984 -1.08761,-1.14736 -0.0175,-0.0875 -0.0493,-0.14054 -0.0708,-0.11784 -0.0473,0.0501 -0.7599,2.02244 -0.7599,2.10316 0,0.0315 0.0286,0.0474 0.0635,0.0354 0.0349,-0.012 0.51365,-0.19021 1.06382,-0.3961 z m 5.06823,-4.13757 c 1.94056,-1.94071 3.51783,-3.53748 3.50507,-3.54839 -0.0128,-0.0109 -0.12609,-0.0455 -0.25182,-0.0768 l -0.2286,-0.057 -3.5522,3.55081 -3.55219,3.5508 0.17399,0.05 c 0.0957,0.0275 0.21978,0.052 0.27574,0.0546 0.0699,0.003 1.2043,-1.09807 3.63001,-3.52397 z m 2.44104,-4.14626 -0.32961,-0.3017 -3.54328,3.54301 -3.54327,3.543 0.31612,0.31897 0.31613,0.31896 3.55676,-3.56028 3.55676,-3.56027 z m -0.52522,-0.78788 c -0.0282,-0.12326 -0.0646,-0.22411 -0.081,-0.22411 -0.0163,0 -1.61379,1.58424 -3.54993,3.52053 l -3.52026,3.52054 0.0643,0.24026 0.0643,0.24027 3.53696,-3.53669 3.53696,-3.53669 z m 1.91594,1.1059 c 0.0141,-0.0229 -0.0177,-0.21013 -0.0706,-0.41612 -0.0902,-0.35077 -0.12007,-0.39827 -0.47018,-0.74838 -0.35056,-0.35056 -0.39727,-0.37987 -0.75023,-0.47066 -0.28778,-0.074 -0.38563,-0.0824 -0.4156,-0.0355 -0.0215,0.0337 -0.0309,0.0841 -0.0208,0.11208 0.0101,0.0279 0.0473,0.18024 0.0828,0.33843 0.0576,0.25749 0.10539,0.32842 0.45571,0.67669 0.35939,0.35729 0.42,0.39669 0.74221,0.48248 0.42744,0.11382 0.41518,0.11214 0.44678,0.061 z"
           style="fill:#ffffff;stroke-width:0.0508" />
        <path
           inkscape:connector-curvature="0"
           id="path4508"
           d="m 185.06439,243.47424 c 0,-0.0124 0.26359,-0.76103 0.58575,-1.6637 l 0.58574,-1.64123 3.80386,-3.80412 3.80386,-3.80412 0.4745,0.11616 0.47449,0.11616 0.45976,0.44888 0.45976,0.44887 0.11802,0.48956 0.11802,0.48956 -3.80538,3.80539 -3.80539,3.80539 -1.61823,0.60784 c -1.67932,0.63077 -1.65476,0.62209 -1.65476,0.58536 z m 1.71719,-0.91917 c 0.50639,-0.18923 0.91059,-0.36042 0.89822,-0.38044 -0.0124,-0.02 -0.0873,-0.0494 -0.16645,-0.0652 -0.20784,-0.0416 -1.03561,-0.89866 -1.10446,-1.14359 -0.0324,-0.1154 -0.067,-0.16369 -0.0902,-0.12618 -0.0207,0.0334 -0.19541,0.50204 -0.3882,1.0414 -0.19279,0.53935 -0.3667,1.02223 -0.38648,1.07306 -0.0337,0.0867 -0.0251,0.0879 0.14047,0.0187 0.097,-0.0405 0.59075,-0.22854 1.09713,-0.41776 z m 4.98636,-4.11091 c 1.94056,-1.94071 3.51783,-3.53748 3.50507,-3.54839 -0.0128,-0.0109 -0.12609,-0.0455 -0.25182,-0.0768 l -0.2286,-0.057 -3.5522,3.55081 -3.55219,3.5508 0.17399,0.05 c 0.0957,0.0275 0.21978,0.052 0.27574,0.0546 0.0699,0.003 1.2043,-1.09807 3.63001,-3.52397 z m 2.45269,-4.1544 -0.31741,-0.31741 -3.5552,3.55493 -3.5552,3.55493 0.31612,0.31897 0.31613,0.31896 3.55648,-3.55648 3.55649,-3.55649 z m -0.53971,-0.80377 c -0.0283,-0.13799 -0.0641,-0.25088 -0.0796,-0.25088 -0.0155,0 -1.61413,1.58605 -3.55248,3.52455 l -3.52428,3.52456 0.0638,0.26609 0.0638,0.26609 3.54004,-3.53977 3.54004,-3.53977 z m 1.92636,1.10802 c 0.0133,-0.0349 -0.0217,-0.22329 -0.0777,-0.41859 -0.0916,-0.31965 -0.13859,-0.39188 -0.47038,-0.72367 -0.33973,-0.33973 -0.39798,-0.37672 -0.74451,-0.47275 -0.21453,-0.0595 -0.39501,-0.0851 -0.42035,-0.0598 -0.0253,0.0253 -0.007,0.19985 0.0425,0.40645 0.0825,0.34373 0.10698,0.38201 0.48389,0.75671 0.36844,0.36628 0.42166,0.40073 0.74002,0.47906 0.43989,0.10822 0.41841,0.10665 0.44653,0.0326 z"
           style="fill:#ffffff;stroke-width:0.0508" />
        <path
           inkscape:connector-curvature="0"
           id="path4506"
           d="m 185.06439,243.48609 c 0,-0.0105 0.26092,-0.74765 0.57982,-1.63812 l 0.57982,-1.61902 3.83129,-3.83128 3.83129,-3.83129 0.47778,0.13092 c 0.47628,0.13051 0.47913,0.13227 0.8986,0.55173 l 0.4208,0.42081 0.13417,0.5065 0.13418,0.50649 -3.8427,3.81043 -3.84271,3.81042 -1.55637,0.58382 c -0.85601,0.32109 -1.57653,0.59143 -1.60117,0.60074 -0.0246,0.009 -0.0448,0.008 -0.0448,-0.002 z m 1.84961,-0.9734 0.85901,-0.32355 -0.19861,-0.063 c -0.13589,-0.0431 -0.34606,-0.20835 -0.66552,-0.52333 -0.38603,-0.38061 -0.47274,-0.49488 -0.50059,-0.65971 -0.0185,-0.10964 -0.0512,-0.18002 -0.0726,-0.15638 -0.0214,0.0236 -0.20535,0.5116 -0.40882,1.08437 -0.20347,0.57277 -0.38062,1.07067 -0.39366,1.10644 -0.0165,0.0454 0.0588,0.0338 0.24901,-0.0381 0.15,-0.0567 0.65928,-0.24877 1.13174,-0.42672 z m 4.87195,-4.08654 3.54628,-3.54655 -0.26805,-0.0619 -0.26806,-0.0619 -3.54595,3.54493 -3.54595,3.54493 0.14058,0.0612 c 0.33343,0.14517 0.17999,0.28068 3.94115,-3.48077 z m -0.80355,-0.26325 3.55555,-3.55582 -0.31737,-0.31736 -0.31736,-0.31737 -3.55155,3.55128 -3.55155,3.55128 0.28784,0.32187 c 0.1583,0.17703 0.29932,0.32189 0.31337,0.3219 0.014,2e-5 1.62553,-1.60009 3.58107,-3.55578 z m 2.70895,-4.67379 c -0.0313,-0.12573 -0.0659,-0.23905 -0.0768,-0.25181 -0.0342,-0.04 -7.07695,7.02952 -7.07695,7.10378 0,0.0387 0.027,0.16042 0.0599,0.27039 l 0.0599,0.19994 3.54546,-3.54685 3.54546,-3.54685 z m 1.91139,1.12188 c 0.0158,-0.0256 -0.01,-0.20739 -0.0571,-0.40402 -0.0818,-0.34097 -0.10477,-0.37613 -0.49565,-0.75981 -0.38326,-0.37621 -0.43259,-0.40783 -0.76042,-0.48747 -0.22771,-0.0553 -0.36792,-0.0678 -0.40009,-0.0356 -0.0322,0.0322 -0.0194,0.17263 0.0366,0.40078 0.0815,0.33262 0.10813,0.37301 0.50169,0.76126 0.38693,0.3817 0.43841,0.41526 0.74582,0.48623 0.41459,0.0957 0.395,0.0939 0.42915,0.0387 z"
           style="fill:#ffffff;stroke-width:0.0508" />
        <path
           inkscape:connector-curvature="0"
           id="path4504"
           d="m 185.34773,242.69552 c 0.15394,-0.43945 0.41771,-1.17792 0.58616,-1.64102 l 0.30627,-0.84201 3.81902,-3.81748 3.81901,-3.81747 0.47929,0.12264 0.4793,0.12264 0.42535,0.42535 0.42535,0.42535 0.12101,0.47558 0.12101,0.47559 -0.11126,0.13149 c -0.0612,0.0723 -1.79146,1.80139 -3.84505,3.84238 l -3.7338,3.71089 -1.27,0.47426 c -0.6985,0.26084 -1.4121,0.52749 -1.58577,0.59254 l -0.31578,0.11829 z m 1.3289,-0.0859 c 0.59007,-0.22245 1.06332,-0.41988 1.05167,-0.43874 -0.0117,-0.0189 -0.0975,-0.0486 -0.19085,-0.0661 -0.25347,-0.0476 -1.07894,-0.90016 -1.12879,-1.16592 -0.0199,-0.10613 -0.0542,-0.17411 -0.0761,-0.15106 -0.0374,0.0392 -0.81094,2.16723 -0.81094,2.23086 0,0.0161 0.0185,0.0217 0.0411,0.0124 0.0226,-0.009 0.52387,-0.19894 1.11395,-0.42139 z m 8.38619,-7.7903 -0.26345,-0.0667 -3.54464,3.54437 c -1.94955,1.9494 -3.53254,3.55678 -3.51776,3.57196 0.0148,0.0152 0.12245,0.0531 0.23925,0.0843 l 0.21237,0.0567 3.56884,-3.56194 3.56884,-3.56194 z m -4.10141,3.38273 c 1.95348,-1.93414 3.55178,-3.54077 3.55178,-3.57029 0,-0.0295 -0.13751,-0.18974 -0.30558,-0.35605 l -0.30557,-0.30239 -3.55713,3.55713 -3.55712,3.55712 0.28556,0.31555 c 0.15706,0.17356 0.29698,0.31556 0.31092,0.31556 0.014,0 1.62366,-1.58248 3.57714,-3.51663 z m 1.40855,-3.04933 1.38737,-1.39106 -0.0614,-0.25059 c -0.0337,-0.13783 -0.0703,-0.26104 -0.0813,-0.2738 -0.0362,-0.0421 -7.07707,7.03158 -7.07678,7.10967 1.6e-4,0.042 0.0245,0.16342 0.054,0.26986 l 0.0537,0.19351 2.16848,-2.13327 c 1.19266,-1.17329 2.7928,-2.75924 3.55585,-3.52432 z m 3.23727,-0.54901 c 0.0183,-0.0296 -0.007,-0.20674 -0.0553,-0.3937 -0.0809,-0.31047 -0.12316,-0.37529 -0.48796,-0.74791 -0.37732,-0.38541 -0.41932,-0.41311 -0.75927,-0.50069 -0.4635,-0.11939 -0.49059,-0.0935 -0.37901,0.36178 0.0793,0.32364 0.11482,0.37973 0.47748,0.75427 0.36377,0.37569 0.41533,0.4105 0.72081,0.48664 0.41314,0.10297 0.4426,0.10538 0.48325,0.0396 z"
           style="display:inline;fill:#ffffff;stroke-width:0.0508" />
        <path
           inkscape:connector-curvature="0"
           id="path4502"
           d="m 185.29845,242.84752 c 0.12578,-0.35541 0.38946,-1.09404 0.58596,-1.64139 l 0.35728,-0.99517 3.81825,-3.81731 3.81825,-3.81731 0.50209,0.13889 0.50209,0.13888 0.4033,0.44047 c 0.38491,0.42038 0.40894,0.46093 0.52668,0.88889 l 0.12338,0.44842 -3.82446,3.82446 -3.82447,3.82446 -1.4207,0.53263 c -0.78139,0.29294 -1.50523,0.56585 -1.60852,0.60646 l -0.18781,0.0738 z m 1.42737,-0.25166 c 0.56454,-0.21241 1.01522,-0.40434 1.00152,-0.42651 -0.0137,-0.0222 -0.10202,-0.0548 -0.19626,-0.0725 -0.25788,-0.0484 -1.06703,-0.88848 -1.11679,-1.15951 -0.0208,-0.11343 -0.0551,-0.17813 -0.0809,-0.1524 -0.0437,0.0438 -0.81184,2.15047 -0.81184,2.22667 0,0.0213 0.04,0.0233 0.0889,0.005 0.0489,-0.0188 0.55079,-0.20795 1.11533,-0.42036 z m 5.03765,-4.14723 3.57462,-3.57488 -0.2661,-0.0638 -0.26609,-0.0638 -3.54875,3.54847 c -1.95182,1.95167 -3.53215,3.56444 -3.51186,3.58395 0.0296,0.0284 0.29988,0.11923 0.41804,0.14043 0.014,0.003 1.63411,-1.60412 3.60014,-3.5703 z m -0.74197,-0.27402 3.54383,-3.54411 -0.33158,-0.32863 -0.33159,-0.32864 -3.56716,3.56716 -3.56717,3.56717 0.30239,0.30557 c 0.16632,0.16807 0.32603,0.30558 0.35492,0.30558 0.0289,0 1.64725,-1.59485 3.59636,-3.5441 z m -0.78121,-0.8952 3.52463,-3.52491 -0.0704,-0.28554 -0.0704,-0.28554 -3.56151,3.56914 -3.56151,3.56915 0.072,0.2413 c 0.0396,0.13271 0.0878,0.2413 0.10725,0.2413 0.0194,0 1.62137,-1.58621 3.55991,-3.5249 z m 5.36972,-2.69181 c 0.0148,-0.0385 -0.0104,-0.21561 -0.0558,-0.3937 -0.0752,-0.29481 -0.11944,-0.36099 -0.49374,-0.73941 -0.38901,-0.39328 -0.42997,-0.42024 -0.76235,-0.50169 -0.4442,-0.10886 -0.47259,-0.0843 -0.38975,0.33675 0.0579,0.29409 0.0964,0.35817 0.45705,0.76044 0.38656,0.43114 0.40029,0.44075 0.74072,0.51843 0.44585,0.10175 0.47181,0.10274 0.50388,0.0192 z"
           style="display:inline;fill:#ffffff;stroke-width:0.0508" />
        <path
           inkscape:connector-curvature="0"
           id="path4500"
           d="m 185.11519,243.41161 c 0,-0.0189 0.25324,-0.74468 0.56275,-1.6129 l 0.56275,-1.5786 3.81182,-3.8159 3.81182,-3.8159 0.46085,0.11727 0.46085,0.11726 0.45072,0.45071 0.45071,0.45072 0.11727,0.46085 0.11726,0.46085 -3.8159,3.81457 -3.8159,3.81458 -1.56232,0.5854 c -0.85928,0.32196 -1.57365,0.58539 -1.5875,0.58539 -0.0138,0 -0.0252,-0.0154 -0.0252,-0.0343 z m 1.64752,-0.82316 c 0.58111,-0.21963 1.03661,-0.41165 1.01223,-0.42672 -0.0244,-0.0151 -0.12966,-0.0434 -0.23396,-0.063 -0.2727,-0.0512 -1.02086,-0.83782 -1.12375,-1.18159 -0.0686,-0.22931 -0.074,-0.23428 -0.12147,-0.11286 -0.15611,0.3991 -0.77417,2.14844 -0.77417,2.19119 0,0.0635 -0.0291,0.073 1.24112,-0.40705 z m 5.00076,-4.13982 3.57462,-3.57488 -0.2661,-0.0638 -0.26609,-0.0638 -3.54996,3.54968 c -1.95247,1.95232 -3.54995,3.56364 -3.54995,3.5807 0,0.0259 0.0833,0.0516 0.45734,0.14095 0.014,0.003 1.63411,-1.6026 3.60014,-3.56878 z m 2.46994,-4.14616 -0.33024,-0.33024 -3.56773,3.56772 -3.56773,3.56773 0.32864,0.33159 0.32863,0.33158 3.56934,-3.56907 3.56934,-3.56906 z m -0.53884,-0.83344 -0.0704,-0.28561 -3.56312,3.56914 -3.56312,3.56915 0.0785,0.27151 0.0785,0.27151 3.55504,-3.55504 3.55504,-3.55504 z m 1.91797,1.11196 c 0.0162,-0.0421 -0.0101,-0.22246 -0.0584,-0.40085 -0.0754,-0.2786 -0.1397,-0.38074 -0.45593,-0.72441 -0.36055,-0.39183 -0.37615,-0.40207 -0.75729,-0.49698 -0.5103,-0.12707 -0.53618,-0.1028 -0.41924,0.39325 0.084,0.35649 0.1044,0.38878 0.47936,0.76039 0.35109,0.34795 0.4231,0.39562 0.69638,0.46097 0.40583,0.0971 0.48041,0.0982 0.51515,0.008 z"
           style="display:inline;fill:#ffffff;stroke-width:0.0508" />
        <path
           inkscape:connector-curvature="0"
           id="path4498"
           d="m 185.11519,243.42807 c 0,-0.0145 0.20825,-0.60502 0.46277,-1.31234 0.25453,-0.70731 0.51017,-1.42742 0.56809,-1.60024 0.10439,-0.31145 0.13871,-0.3476 3.90396,-4.1126 l 3.79863,-3.79838 0.47557,0.11465 0.47558,0.11465 0.43888,0.44195 0.43889,0.44195 0.11448,0.47161 0.11448,0.47161 -3.79535,3.79559 -3.79535,3.79559 -1.55323,0.5842 c -0.85427,0.32131 -1.57441,0.59182 -1.60031,0.60113 -0.0259,0.009 -0.0471,0.005 -0.0471,-0.009 z m 1.58105,-0.80652 c 0.60669,-0.22987 1.09389,-0.4328 1.08267,-0.45095 -0.0112,-0.0182 -0.11794,-0.058 -0.23716,-0.0887 -0.17889,-0.0459 -0.29322,-0.13912 -0.65442,-0.53333 -0.3286,-0.35864 -0.44658,-0.5252 -0.47344,-0.6684 -0.0204,-0.10891 -0.0548,-0.17155 -0.08,-0.14602 -0.0243,0.0246 -0.2188,0.5355 -0.43213,1.13534 -0.21333,0.59984 -0.39891,1.10848 -0.41239,1.1303 -0.0533,0.0862 0.14597,0.0237 1.20692,-0.37828 z m 5.11231,-4.16674 3.57085,-3.5687 -0.1918,-0.0596 c -0.41447,-0.12877 -0.18269,-0.33081 -3.99926,3.48605 -3.34978,3.35003 -3.54606,3.55615 -3.42886,3.60067 0.15121,0.0574 0.30195,0.0965 0.40286,0.10439 0.0414,0.003 1.68224,-1.60003 3.64621,-3.56281 z m 2.41272,-4.16551 -0.34158,-0.34422 -3.54405,3.54378 c -1.94923,1.94908 -3.54405,3.56608 -3.54405,3.59335 0,0.0273 0.14251,0.19336 0.3167,0.3691 l 0.31669,0.31954 3.56894,-3.56867 3.56894,-3.56866 z m -0.51725,-0.82922 -0.065,-0.2905 -3.5749,3.57607 -3.5749,3.57606 0.0808,0.27353 0.0808,0.27353 3.55909,-3.55909 3.5591,-3.5591 z m 1.92677,1.09046 c 0,-0.0588 -0.0358,-0.24742 -0.0796,-0.4191 -0.0709,-0.27793 -0.12188,-0.35488 -0.46522,-0.70232 -0.36055,-0.36486 -0.40815,-0.39573 -0.7331,-0.47536 -0.19114,-0.0468 -0.38184,-0.072 -0.42378,-0.0559 -0.0953,0.0366 -0.0957,0.18342 -0.002,0.53721 0.0623,0.2341 0.13306,0.33608 0.4646,0.66958 0.33806,0.34005 0.42966,0.40355 0.67521,0.4681 0.42727,0.11231 0.56349,0.10695 0.56349,-0.0222 z"
           style="display:inline;fill:#ffffff;stroke-width:0.0508" />
      </g>
      <path
         inkscape:connector-curvature="0"
         id="path4514"
         transform="scale(0.26458333)"
         d="m 539.77539,844.83594 a 27.736551,19.78153 38.596836 0 0 -14.72461,5.8789 27.736551,19.78153 38.596836 0 0 9.33789,32.76563 27.736551,19.78153 38.596836 0 0 34.01758,1.83984 27.736551,19.78153 38.596836 0 0 -0.38086,-22.38867 l -3.98828,1.49609 a 22.189246,15.825228 38.596836 0 1 0.0332,17.4336 22.189246,15.825228 38.596836 0 1 -27.21289,-1.47266 22.189246,15.825228 38.596836 0 1 -7.4707,-26.21289 22.189246,15.825228 38.596836 0 1 19.43945,-3.01367 l 1.37695,-3.87695 a 27.736551,19.78153 38.596836 0 0 -10.42773,-2.44922 z m 18.03906,6.79492 -1.38281,3.89258 a 22.189246,15.825228 38.596836 0 1 0.16992,0.1289 22.189246,15.825228 38.596836 0 1 1.88477,1.64454 l 4.11133,-1.54297 a 27.736551,19.78153 38.596836 0 0 -3.5293,-3.19336 27.736551,19.78153 38.596836 0 0 -1.25391,-0.92969 z"
         style="fill:#ffffff;fill-opacity:1;stroke:#000000;stroke-width:0;stroke-miterlimit:4;stroke-dasharray:none;stroke-dashoffset:0;stroke-opacity:1" />
    </g>
  </g>
</svg>
