<?xml version="1.0" encoding="UTF-8" standalone="no"?>
<!-- Created with Inkscape (http://www.inkscape.org/) -->

<svg
   xmlns:dc="http://purl.org/dc/elements/1.1/"
   xmlns:cc="http://creativecommons.org/ns#"
   xmlns:rdf="http://www.w3.org/1999/02/22-rdf-syntax-ns#"
   xmlns:svg="http://www.w3.org/2000/svg"
   xmlns="http://www.w3.org/2000/svg"
   xmlns:sodipodi="http://sodipodi.sourceforge.net/DTD/sodipodi-0.dtd"
   xmlns:inkscape="http://www.inkscape.org/namespaces/inkscape"
   width="50"
   height="50"
   viewBox="0 0 13.229167 13.229167"
   version="1.1"
   id="svg108"
   inkscape:version="0.92.1 r15371"
   sodipodi:docname="streetviewbutton.svg">
  <sodipodi:namedview
     id="base"
     pagecolor="#ffffff"
     bordercolor="#666666"
     borderopacity="1.0"
     inkscape:pageopacity="0.0"
     inkscape:pageshadow="2"
     inkscape:zoom="11.42298"
     inkscape:cx="41.161353"
     inkscape:cy="28.852608"
     inkscape:document-units="mm"
     inkscape:current-layer="layer1"
     showgrid="false"
     units="px"
     inkscape:window-width="1680"
     inkscape:window-height="987"
     inkscape:window-x="-4"
     inkscape:window-y="-4"
     inkscape:window-maximized="1"
     showguides="true"
     inkscape:guide-bbox="true" />
  <defs
     id="defs102" />
  <metadata
     id="metadata105">
    <rdf:RDF>
      <cc:Work
         rdf:about="">
        <dc:format>image/svg+xml</dc:format>
        <dc:type
           rdf:resource="http://purl.org/dc/dcmitype/StillImage" />
        <dc:title />
      </cc:Work>
    </rdf:RDF>
  </metadata>
  <g
     transform="translate(0,-283.77083)"
     id="layer1"
     inkscape:groupmode="layer"
     inkscape:label="Laag 1">
    <path
       style="fill:#ffffff;stroke-width:0.01993788"
       d="M 5.6749601,295.65804 C 4.6066451,295.57414 3.75251,295.37352 3.1560586,295.06618 2.7708352,294.8677 2.5783516,294.6881 2.451214,294.40848 2.383256,294.25903 2.38125,294.24776 2.38125,294.01756 c 0,-0.23258 0.00138,-0.23998 0.072664,-0.39272 0.1936061,-0.41476 0.7010733,-0.72882 1.5645054,-0.96825 0.6736239,-0.18681 0.909846,-0.17112 1.043295,0.0693 0.043482,0.0783 0.051289,0.11622 0.050791,0.24642 -4.637e-4,0.12451 -0.00969,0.17137 -0.048439,0.24541 -0.066079,0.12642 -0.1454686,0.17594 -0.3639029,0.22695 -0.5459654,0.12749 -0.8668595,0.23123 -1.1122227,0.35949 -0.1486073,0.0777 -0.3057698,0.18753 -0.3057698,0.21371 0,0.0587 0.3253073,0.25407 0.5909313,0.35486 0.3111311,0.11805 0.8799576,0.25212 1.3174857,0.31051 0.5070929,0.0677 0.7721814,0.0831 1.4240478,0.0831 0.6518654,0 0.9169535,-0.0155 1.4240478,-0.0831 0.4375293,-0.0584 1.0063535,-0.19246 1.3174853,-0.31051 0.2656232,-0.10079 0.5909307,-0.29614 0.5909307,-0.35486 0,-0.0101 -0.03951,-0.0465 -0.087812,-0.0817 -0.2575605,-0.18766 -0.7076268,-0.35643 -1.2587438,-0.47201 -0.3058138,-0.0641 -0.3758978,-0.10391 -0.4535952,-0.25743 -0.054725,-0.10812 -0.056597,-0.34635 -0.00369,-0.4558 0.073794,-0.1524 0.2008197,-0.23002 0.376407,-0.23002 0.2891593,0 1.0973633,0.23259 1.4976524,0.43099 0.405462,0.20098 0.63116,0.40137 0.757943,0.67297 0.0713,0.15274 0.07266,0.16014 0.07266,0.39272 0,0.23021 -0.0023,0.24147 -0.06994,0.39092 -0.127143,0.27962 -0.319622,0.45922 -0.704849,0.6577 -0.6078741,0.31322 -1.4487577,0.50831 -2.5576503,0.5934 -0.3137752,0.0241 -1.5271698,0.0231 -1.8406047,-0.002 z m -0.050237,-1.23577 c -0.05606,-0.0314 -0.1053506,-0.0819 -0.1435132,-0.14712 l -0.058128,-0.0994 -0.00562,-1.25831 -0.00562,-1.25834 h -0.172638 c -0.2333,0 -0.3554251,-0.0304 -0.4406193,-0.10957 -0.145626,-0.13542 -0.1398403,-0.0716 -0.1403163,-1.54677 -4.632e-4,-1.48165 -0.00868,-1.39344 0.1482805,-1.60717 0.089209,-0.12152 0.1417973,-0.16861 0.2953369,-0.26446 0.2530096,-0.15798 0.5457979,-0.19553 1.5224982,-0.19523 0.9685551,3.1e-4 1.2498005,0.037 1.5053998,0.19663 0.1527636,0.0955 0.219538,0.15543 0.3011368,0.27076 0.147956,0.20914 0.1406793,0.12613 0.1402032,1.59947 -4.625e-4,1.47514 0.00518,1.41135 -0.1403154,1.54677 -0.085195,0.0792 -0.2073203,0.10957 -0.4406192,0.10957 H 7.8176109 l -0.00562,1.25834 -0.00562,1.25831 -0.058121,0.0994 c -0.038175,0.0652 -0.087442,0.11577 -0.1435142,0.14712 l -0.085391,0.0478 H 6.6149487 5.7104263 Z m 0.7864773,-6.82525 c -0.4555754,-0.0676 -0.8358355,-0.42945 -0.9516861,-0.9056 -0.042134,-0.17317 -0.042134,-0.51931 0,-0.69249 0.1018821,-0.41872 0.4275909,-0.76588 0.8188579,-0.87279 0.1582639,-0.0432 0.5142611,-0.0432 0.6725243,0 0.3912657,0.10691 0.7169765,0.45407 0.8188576,0.87279 0.042126,0.17318 0.042126,0.51932 0,0.69249 -0.068486,0.28148 -0.2513699,0.55771 -0.4718685,0.71271 -0.2278989,0.16019 -0.5844514,0.23776 -0.8866852,0.19289 z"
       id="path4627"
       inkscape:connector-curvature="0" />
  </g>
</svg>
